#N canvas 911 133 713 761 12;
#X obj 100 28 gemhead 20;
#X obj 95 658 curve 4;
#X obj 284 158 t a a;
#X obj 284 244 pack f f;
#X msg 284 272 \$1 \$2 0;
#X obj 284 302 t a b;
#X obj 313 332 list;
#X obj 318 362 t a b;
#X obj 347 392 list;
#X obj 350 418 t a b;
#X obj 379 448 list;
#X obj 100 70 t a b;
#X obj 98 256 scaleXYZ 4 4 0;
#X obj 98 279 t a b a b;
#X msg 114 201 auto 0;
#X obj 114 180 loadbang;
#X msg 151 374 width \$1;
#X msg 115 402 width \$1;
#X obj 98 145 translateXYZ 0 0 -17;
#X obj 115 329 f 1;
#X obj 150 348 f 2;
#X obj 132 303 spigot 1;
#X obj 98 232 alpha 1;
#X obj 284 133 f \$1;
#X obj 284 183 tabread \$2-tab_posX;
#X obj 313 211 tabread \$2-tab_posY;
#X msg 140 527 width 0.25;
#X obj 151 485 loadbang;
#X connect 0 0 11 0;
#X connect 2 0 24 0;
#X connect 2 1 25 0;
#X connect 3 0 4 0;
#X connect 4 0 5 0;
#X connect 5 0 6 1;
#X connect 5 0 1 1;
#X connect 5 1 6 0;
#X connect 6 0 7 0;
#X connect 7 0 8 1;
#X connect 7 0 1 2;
#X connect 7 1 8 0;
#X connect 8 0 9 0;
#X connect 9 0 10 1;
#X connect 9 0 1 3;
#X connect 9 1 10 0;
#X connect 10 0 1 4;
#X connect 11 0 18 0;
#X connect 11 1 23 0;
#X connect 12 0 13 0;
#X connect 13 0 1 0;
#X connect 13 1 19 0;
#X connect 13 2 21 0;
#X connect 13 3 20 0;
#X connect 14 0 22 0;
#X connect 15 0 14 0;
#X connect 18 0 22 0;
#X connect 19 0 17 0;
#X connect 20 0 16 0;
#X connect 22 0 12 0;
#X connect 23 0 2 0;
#X connect 24 0 3 0;
#X connect 25 0 3 1;
#X connect 26 0 1 0;
#X connect 27 0 26 0;
