#N canvas 437 291 1179 692 10;
#X obj 38 494 textfile;
#X obj 77 433 + 10000;
#X obj 38 223 metro 100;
#X obj 38 244 f;
#X obj 77 327 + 1;
#X obj 65 175 sel 1;
#X obj 38 154 t f f;
#X obj 38 132 tgl 15 0 empty empty empty 17 7 0 10 #fcfcfc #000000 #000000 0 1;
#X obj 77 369 / 100;
#X obj 77 391 i;
#X obj 77 412 change -1;
#X msg 170 204 rewind;
#X obj 105 241 bng 15 250 50 0 empty empty empty 17 7 0 10 #fcfcfc #000000 #000000;
#X obj 38 348 t b b f;
#X obj 132 359 t b, f 4;
#X text 144 383 on fait quoi si il n'y a plus de données;
#X obj 38 67 r read_data_live;
#X obj 108 146 r init_cfg_current;
#X obj 64 200 f;
#X obj 108 173 * 100;
#X obj 591 512 textfile;
#X obj 630 451 + 10000;
#X obj 591 151 metro 100;
#X obj 591 172 f;
#X obj 620 173 + 1;
#X obj 591 60 tgl 15 0 empty empty empty 17 7 0 10 #fcfcfc #000000 #000000 0 1;
#X obj 630 387 / 100;
#X obj 630 409 i;
#X obj 630 430 change -1;
#X obj 658 169 bng 15 250 50 0 empty empty empty 17 7 0 10 #fcfcfc #000000 #000000;
#X obj 591 35 r replay_data_live;
#X obj 354 28 r init_cfg_live;
#X obj 354 54 t f f;
#N canvas 1921 61 756 456 parse_text_file 0;
#X obj 96 32 inlet;
#X obj 96 118 list split 18;
#X obj 206 121 list split 18;
#X obj 96 198 t a a a;
#N canvas 1 95 450 300 split_index 0;
#X obj 23 23 inlet;
#X obj 22 45 unpack f f f f f f f f f f f f f f f f;
#X obj 22 194 outlet;
#X msg 22 71 0 \$1;
#X msg 36 90 1 \$1;
#X msg 52 109 2 \$1;
#X msg 67 127 3 \$1;
#X msg 82 70 4 \$1;
#X msg 96 90 5 \$1;
#X msg 112 109 6 \$1;
#X msg 127 127 7 \$1;
#X msg 142 71 8 \$1;
#X msg 156 90 9 \$1;
#X msg 172 109 10 \$1;
#X msg 185 129 11 \$1;
#X msg 202 71 12 \$1;
#X msg 216 90 13 \$1;
#X msg 232 109 14 \$1;
#X msg 247 127 15 \$1;
#X connect 0 0 1 0;
#X connect 1 0 3 0;
#X connect 1 1 4 0;
#X connect 1 2 5 0;
#X connect 1 3 6 0;
#X connect 1 4 7 0;
#X connect 1 5 8 0;
#X connect 1 6 9 0;
#X connect 1 7 10 0;
#X connect 1 8 11 0;
#X connect 1 9 12 0;
#X connect 1 10 13 0;
#X connect 1 11 14 0;
#X connect 1 12 15 0;
#X connect 1 13 16 0;
#X connect 1 14 17 0;
#X connect 1 15 18 0;
#X connect 3 0 2 0;
#X connect 4 0 2 0;
#X connect 5 0 2 0;
#X connect 6 0 2 0;
#X connect 7 0 2 0;
#X connect 8 0 2 0;
#X connect 9 0 2 0;
#X connect 10 0 2 0;
#X connect 11 0 2 0;
#X connect 12 0 2 0;
#X connect 13 0 2 0;
#X connect 14 0 2 0;
#X connect 15 0 2 0;
#X connect 16 0 2 0;
#X connect 17 0 2 0;
#X connect 18 0 2 0;
#X restore 135 225 pd split_index;
#X obj 116 419 s chdh_pre;
#X obj 96 142 t a b;
#X obj 206 142 t a b;
#X obj 316 121 list split 18;
#X obj 316 142 t a b;
#X obj 426 121 list split 18;
#X obj 426 142 t a b;
#X obj 536 121 list split 18;
#X obj 536 142 t a b;
#X obj 116 308 pack f f s;
#X obj 96 357 pack f s;
#X obj 173 282 symbol;
#X msg 563 168 chaos;
#X msg 123 168 mouches;
#X msg 233 167 emergence;
#X msg 343 168 fluide;
#X msg 453 168 morphing;
#X msg 116 330 interface distant \$3 paramettre \$1 \$2;
#X msg 96 382 interface distant \$2 rythme 0 \$1;
#X msg 96 277 \$18;
#X msg 115 252 24 \$17;
#X obj 368 68 t b;
#N canvas 50 111 450 300 send2 0;
#X obj 24 19 inlet;
#X obj 24 44 t b b a b b;
#X msg 96 70 set;
#X msg 78 94 addsemi;
#X obj 60 114 list prepend add;
#X obj 60 136 list trim;
#X msg 65 211;
#X connect 0 0 1 0;
#X connect 1 0 6 0;
#X connect 1 1 3 0;
#X connect 1 2 4 0;
#X connect 1 3 3 0;
#X connect 1 4 2 0;
#X connect 2 0 6 0;
#X connect 3 0 6 0;
#X connect 4 0 5 0;
#X connect 5 0 6 0;
#X restore 183 91 pd send2;
#X obj 96 68 route egregore_data egregore_control nothing;
#X obj 368 89 outlet;
#X connect 0 0 28 0;
#X connect 1 0 6 0;
#X connect 1 1 2 0;
#X connect 2 0 7 0;
#X connect 2 1 8 0;
#X connect 3 0 24 0;
#X connect 3 1 25 0;
#X connect 3 2 4 0;
#X connect 4 0 14 0;
#X connect 6 0 3 0;
#X connect 6 1 18 0;
#X connect 7 0 3 0;
#X connect 7 1 19 0;
#X connect 8 0 9 0;
#X connect 8 1 10 0;
#X connect 9 0 3 0;
#X connect 9 1 20 0;
#X connect 10 0 11 0;
#X connect 10 1 12 0;
#X connect 11 0 3 0;
#X connect 11 1 21 0;
#X connect 12 0 13 0;
#X connect 13 0 3 0;
#X connect 13 1 17 0;
#X connect 14 0 22 0;
#X connect 15 0 23 0;
#X connect 16 0 14 2;
#X connect 16 0 15 1;
#X connect 17 0 16 0;
#X connect 18 0 16 0;
#X connect 19 0 16 0;
#X connect 20 0 16 0;
#X connect 21 0 16 0;
#X connect 22 0 5 0;
#X connect 23 0 5 0;
#X connect 24 0 15 0;
#X connect 25 0 14 0;
#X connect 26 0 29 0;
#X connect 28 0 1 0;
#X connect 28 1 27 0;
#X connect 28 3 26 0;
#X restore 38 608 pd parse_text_file;
#X obj 624 535 == 3;
#X obj 591 559 spigot;
#X obj 38 579 spigot;
#X obj 7 655 spigot;
#X obj 40 631 == 1;
#X obj 71 555 == 1;
#X obj 775 142 r replay_data_pos;
#X obj 775 165 / 127;
#X obj 775 187 * 100;
#X obj 775 215 *;
#X obj 817 247 / 100;
#X obj 817 275 /;
#X obj 817 296 * 127;
#X obj 591 366 t b b f f;
#X msg 817 323 set \$1;
#X obj 817 347 s replay_data_pos_set;
#X obj 633 252 * 100;
#X obj 591 247 t f f;
#X obj 633 228 + 1;
#X obj 618 277 <;
#X obj 591 307 spigot;
#X obj 591 334 t f f;
#X obj 646 307 tgl 15 0 empty empty empty 17 7 0 10 #fcfcfc #000000 #000000 0 1;
#X obj 818 188 r nb_file;
#X obj 633 204 r nb_file;
#X obj 671 297 sel 0;
#X obj 671 360 s replay_data_live_set;
#X msg 671 321 0;
#X obj 217 174 r written_file;
#X obj 71 286 <=;
#X obj 38 306 spigot;
#X obj 217 197 * 100;
#X obj 38 265 t f f;
#X obj 818 211 + 1;
#X obj 775 237 i;
#X obj 122 529 print_debug DATAFILE;
#X msg 122 489 READING data-\$1.txt;
#X obj 668 535 print_debug DATAFILE;
#X msg 668 515 READING data-\$1.txt;
#X obj 83 119 print_debug DATA_FILE;
#X msg 83 93 MODE READ LIVE \$1;
#X obj 622 87 print_debug DATA_FILE;
#X msg 622 61 MODE REPLAY LIVE \$1;
#X obj 1015 479 s replay_data_pos_set;
#X obj 1015 263 / 10;
#X obj 1015 306 / 60;
#X obj 1015 328 i;
#X obj 1050 306 % 60;
#X obj 1015 284 t f f;
#X obj 1015 395 i;
#X obj 1015 351 t f f;
#X obj 1015 430 pack f f f f;
#X obj 1015 373 / 10;
#X obj 1050 373 % 10;
#X obj 1093 396 i;
#X obj 1093 352 t f f;
#X obj 1093 374 / 10;
#X obj 1128 374 % 10;
#X msg 1015 454 label \$1\$2:\$3\$4/40:20;
#X msg 77 454 read ../data/null.txt \, read ../data/data-\$1.txt \, rewind;
#X msg 630 472 read ../data/data-\$1.txt \, rewind;
#X connect 0 0 36 0;
#X connect 1 0 93 0;
#X connect 1 0 70 0;
#X connect 2 0 3 0;
#X connect 3 0 66 0;
#X connect 4 0 3 1;
#X connect 5 0 11 0;
#X connect 5 0 18 0;
#X connect 6 0 2 0;
#X connect 6 1 5 0;
#X connect 7 0 6 0;
#X connect 8 0 9 0;
#X connect 9 0 10 0;
#X connect 10 0 1 0;
#X connect 11 0 0 0;
#X connect 12 0 3 0;
#X connect 13 0 0 0;
#X connect 13 2 8 0;
#X connect 16 0 7 0;
#X connect 16 0 74 0;
#X connect 17 0 19 0;
#X connect 18 0 3 1;
#X connect 19 0 18 1;
#X connect 20 0 35 0;
#X connect 21 0 94 0;
#X connect 21 0 72 0;
#X connect 22 0 23 0;
#X connect 23 0 51 0;
#X connect 24 0 23 1;
#X connect 25 0 22 0;
#X connect 26 0 27 0;
#X connect 27 0 28 0;
#X connect 28 0 21 0;
#X connect 29 0 23 0;
#X connect 30 0 25 0;
#X connect 30 0 76 0;
#X connect 31 0 32 0;
#X connect 32 1 34 0;
#X connect 32 1 38 0;
#X connect 32 1 39 0;
#X connect 33 0 37 0;
#X connect 34 0 35 1;
#X connect 35 0 33 0;
#X connect 36 0 33 0;
#X connect 37 0 0 0;
#X connect 38 0 37 1;
#X connect 39 0 36 1;
#X connect 40 0 41 0;
#X connect 41 0 42 0;
#X connect 42 0 43 0;
#X connect 43 0 68 0;
#X connect 44 0 45 0;
#X connect 45 0 46 0;
#X connect 46 0 48 0;
#X connect 47 0 20 0;
#X connect 47 2 26 0;
#X connect 47 3 44 0;
#X connect 47 3 78 0;
#X connect 48 0 49 0;
#X connect 50 0 53 1;
#X connect 51 0 54 0;
#X connect 51 1 53 0;
#X connect 52 0 50 0;
#X connect 53 0 54 1;
#X connect 53 0 56 0;
#X connect 53 0 59 0;
#X connect 54 0 55 0;
#X connect 55 0 47 0;
#X connect 55 1 24 0;
#X connect 57 0 67 0;
#X connect 58 0 52 0;
#X connect 59 0 61 0;
#X connect 61 0 60 0;
#X connect 62 0 65 0;
#X connect 63 0 64 1;
#X connect 64 0 13 0;
#X connect 64 0 4 0;
#X connect 65 0 63 1;
#X connect 66 0 64 0;
#X connect 66 1 63 0;
#X connect 67 0 43 1;
#X connect 67 0 45 1;
#X connect 68 0 23 1;
#X connect 70 0 69 0;
#X connect 72 0 71 0;
#X connect 74 0 73 0;
#X connect 76 0 75 0;
#X connect 78 0 82 0;
#X connect 79 0 80 0;
#X connect 80 0 84 0;
#X connect 81 0 89 0;
#X connect 82 0 79 0;
#X connect 82 1 81 0;
#X connect 83 0 85 0;
#X connect 84 0 86 0;
#X connect 84 1 87 0;
#X connect 85 0 92 0;
#X connect 86 0 83 0;
#X connect 87 0 85 1;
#X connect 88 0 85 2;
#X connect 89 0 90 0;
#X connect 89 1 91 0;
#X connect 90 0 88 0;
#X connect 91 0 85 3;
#X connect 92 0 77 0;
#X connect 93 0 0 0;
#X connect 94 0 20 0;
