#N canvas 830 378 733 502 10;
#X declare -path shmem -path pmpd -lib iem_tab -path nusmuk-audio -path ../../abs;
#X declare -path /home/chnry/Documents/Pd/externals/shmem;
#X declare -path /home/chnry/Documents/Pd/externals/nusmuk-audio;
#X declare -path /home/chnry/Documents/Pd/externals/pmpd;
#X declare -path /home/chnry/Documents/Pd/externals/iem_tab -lib iem_tab;
#N canvas 615 596 711 285 initialisation 0;
#X obj 19 103 s pd;
#X obj 19 63 loadbang;
#X msg 19 83 dsp 1;
#X obj 18 11 declare -path shmem -path pmpd -lib iem_tab -path nusmuk-audio -path ../../abs, f 80;
#X obj 154 86 declare -path /home/chnry/Documents/Pd/externals/shmem;
#X obj 154 106 declare -path /home/chnry/Documents/Pd/externals/nusmuk-audio;
#X obj 151 186 declare -path /home/chnry/Documents/Pd/externals/pmpd;
#X obj 161 143 declare -path /home/chnry/Documents/Pd/externals/iem_tab -lib iem_tab;
#X connect 1 0 2 0;
#X connect 2 0 0 0;
#X restore 25 101 pd initialisation ______________;
#N canvas 194 130 450 300 syncro 0;
#N canvas 504 440 677 541 gestion_table 0;
#X msg 40 35 0.5;
#X msg 40 77 0.5;
#X msg 40 138 0.5;
#X msg 40 178 0.5;
#X msg 40 238 0 189 188;
#X msg 40 278 0 189 188;
#X text 112 239 filtrage;
#X text 259 316 vitesse;
#X obj 40 14 inlet;
#X obj 40 98 tab_mul_scalar tab_posX tab_posX;
#X obj 40 118 tab_add tab_posX-b tab_posX tab_posX;
#X obj 40 198 tab_mul_scalar tab_posY tab_posY;
#X obj 40 218 tab_add tab_posY-b tab_posY tab_posY;
#X obj 40 258 tab_copy tab_posX tab_posX;
#X obj 40 298 tab_copy tab_posY tab_posY;
#X obj 40 317 tab_sub tab_posX tab_oldX tab_oldX;
#X obj 40 337 tab_sub tab_posY tab_oldY tab_oldY;
#X obj 40 357 tab_mul tab_oldX tab_oldX sqrX;
#X obj 40 377 tab_mul tab_oldY tab_oldY sqrY;
#X obj 40 396 tab_add sqrX sqrY sqrX;
#X obj 40 423 outlet;
#X obj 40 56 tab_mul_scalar tab_posX-b tab_posX-2bis;
#X obj 40 158 tab_mul_scalar tab_posY-b tab_posY-2bis;
#X connect 0 0 21 0;
#X connect 1 0 9 0;
#X connect 2 0 22 0;
#X connect 3 0 11 0;
#X connect 4 0 13 0;
#X connect 5 0 14 0;
#X connect 8 0 0 0;
#X connect 9 0 10 0;
#X connect 10 0 2 0;
#X connect 11 0 12 0;
#X connect 12 0 4 0;
#X connect 13 0 5 0;
#X connect 14 0 15 0;
#X connect 15 0 16 0;
#X connect 16 0 17 0;
#X connect 17 0 18 0;
#X connect 18 0 19 0;
#X connect 19 0 20 0;
#X connect 21 0 1 0;
#X connect 22 0 3 0;
#X restore 20 202 pd gestion_table;
#X msg 39 145 bang \, massesPosXL \, massesPosYL \, massesSpeedsMean \, massesPosXT tab_posX-b \, massesPosYT tab_posY-b;
#X obj 20 224 s metro_sound_part_emergence;
#X obj 59 61 tab_copy tab_posX tab_oldX;
#X obj 59 84 tab_copy tab_posY tab_oldY;
#N canvas 1 83 450 300 rnd_noise_anti_denormal 0;
#X obj 52 78 random 1001;
#X obj 52 99 -500;
#X obj 52 21 inlet;
#X obj 52 49 t b b;
#X obj 141 78 random 1001;
#X obj 141 99 -500;
#X obj 51 147 pack f f;
#X obj 47 205 outlet;
#X msg 49 176 force point \$1 \$2;
#X obj 141 121 / 1e+08;
#X obj 52 121 / 1e+08;
#X connect 0 0 1 0;
#X connect 1 0 10 0;
#X connect 2 0 3 0;
#X connect 3 0 0 0;
#X connect 3 1 4 0;
#X connect 4 0 5 0;
#X connect 5 0 9 0;
#X connect 6 0 8 0;
#X connect 8 0 7 0;
#X connect 9 0 6 1;
#X connect 10 0 6 0;
#X restore 59 105 pd rnd_noise_anti_denormal;
#X obj 20 41 t b b b;
#X obj 20 20 inlet;
#X obj 59 125 s \$0-pmpd;
#X obj 39 179 s \$0-pmpd;
#X connect 0 0 2 0;
#X connect 1 0 9 0;
#X connect 3 0 4 0;
#X connect 4 0 5 0;
#X connect 5 0 8 0;
#X connect 6 0 0 0;
#X connect 6 1 1 0;
#X connect 6 2 3 0;
#X connect 7 0 6 0;
#X restore 23 48 pd syncro ______________________;
#N canvas 954 526 684 397 physical_model 0;
#X msg 224 178 \$3;
#X obj 224 198 - 1;
#X obj 224 217 max 0;
#X obj 224 236 / 5;
#X obj 224 336 + 0.98;
#X obj 224 256 min 1;
#X obj 224 296 pow 0.5;
#X obj 224 276 env+ 2;
#X obj 224 316 * 0.01;
#X obj 42 89 route massesPosXL massesPosYL massesSpeedsMean;
#X obj 224 355 s noise_level;
#N canvas 451 124 1073 709 creation 0;
#X obj 558 171 t b b b;
#X obj 89 49 bng 15 250 50 0 empty empty empty 17 7 0 10 #fcfcfc #000000 #000000;
#X msg 558 397 mass centre 0 1 0 0;
#X obj 71 635 outlet;
#X obj 558 422 t a;
#X msg 848 140 reset;
#X obj 71 68 t b b b b;
#X obj 558 151 bng 15 250 50 0 empty empty empty 17 7 0 10 #fcfcfc #000000 #000000;
#X obj 153 221 t b;
#X msg 153 246 tLink D2 centre point 0 0 1 0;
#X msg 163 267 tLink D2 centre point 0 0 0 1;
#X obj 597 216 until;
#X obj 597 264 random 1001;
#X obj 597 286 - 500;
#X obj 597 308 / 500;
#X obj 597 238 t b b;
#X obj 681 264 random 1001;
#X obj 681 286 - 500;
#X obj 681 308 / 500;
#X obj 597 351 pack f f;
#X obj 597 329 * 0.001;
#X obj 681 329 * 0.001;
#X obj 172 295 \$0;
#X msg 597 375 mass point 1 100 \$1 \$2;
#X msg 172 321 tabLink nlLink point point \$1-K-mass 1.5 \$1-D-mass 0.2;
#X msg 112 193 setDEnv point 70;
#X msg 82 145 setK nlLink 0.55 \, setD nlLink 0.03 \, setL D2 0;
#X msg 597 193 189;
#X msg 71 121 Xmin -2 \, Ymin -2 \, Xmax 2 \, Ymax 2;
#X msg 100 169 link border centre point 111 33 1 0.5 1 \, setL border 0.5;
#X obj 71 26 loadbang;
#X connect 0 0 2 0;
#X connect 0 2 27 0;
#X connect 1 0 6 0;
#X connect 2 0 4 0;
#X connect 4 0 3 0;
#X connect 5 0 3 0;
#X connect 6 0 28 0;
#X connect 6 0 26 0;
#X connect 6 0 25 0;
#X connect 6 0 29 0;
#X connect 6 1 8 0;
#X connect 6 2 0 0;
#X connect 6 3 5 0;
#X connect 7 0 0 0;
#X connect 8 0 9 0;
#X connect 8 0 10 0;
#X connect 8 0 22 0;
#X connect 9 0 3 0;
#X connect 10 0 3 0;
#X connect 11 0 15 0;
#X connect 12 0 13 0;
#X connect 13 0 14 0;
#X connect 14 0 20 0;
#X connect 15 0 12 0;
#X connect 15 1 16 0;
#X connect 16 0 17 0;
#X connect 17 0 18 0;
#X connect 18 0 21 0;
#X connect 19 0 23 0;
#X connect 20 0 19 0;
#X connect 21 0 19 1;
#X connect 22 0 24 0;
#X connect 23 0 4 0;
#X connect 24 0 3 0;
#X connect 25 0 3 0;
#X connect 26 0 3 0;
#X connect 27 0 11 0;
#X connect 28 0 3 0;
#X connect 29 0 3 0;
#X connect 30 0 6 0;
#X restore 450 93 pd creation ________________;
#X obj 42 63 pmpd2d 10000 100000;
#X obj 450 113 s \$0-pmpd;
#X obj 42 39 r \$0-pmpd;
#X obj 42 120 s tab_posX-\$2-b;
#X obj 157 126 s tab_posY-\$2-b;
#X connect 0 0 1 0;
#X connect 1 0 2 0;
#X connect 2 0 3 0;
#X connect 3 0 5 0;
#X connect 4 0 10 0;
#X connect 5 0 7 0;
#X connect 6 0 8 0;
#X connect 7 0 6 0;
#X connect 8 0 4 0;
#X connect 9 0 15 0;
#X connect 9 1 16 0;
#X connect 9 2 0 0;
#X connect 11 0 13 0;
#X connect 12 0 9 0;
#X connect 14 0 12 0;
#X restore 24 164 pd physical_model ______________;
#N canvas 303 524 450 300 tables 0;
#X obj 40 95 table tab_posX-b 377;
#X obj 40 114 table tab_posY-b 377;
#X obj 40 57 table tab_oldX 377;
#X obj 40 76 table tab_oldY 377;
#X obj 40 19 table sqrX 377;
#X obj 40 38 table sqrY 377;
#X obj 40 133 table tab_posX 377;
#X obj 40 152 table tab_posY 377;
#X obj 40 171 table tab_posX-2bis 377;
#X obj 40 190 table tab_posY-2bis 377;
#X restore 24 192 pd tables ______________________;
#N canvas 830 365 450 300 K_D_non_linear_table 0;
#X obj 49 208 table \$0-K-mass 20;
#X obj 49 228 table \$0-D-mass 2;
#X obj 47 23 r K_tab;
#X obj 47 48 unpack f f;
#X obj 49 142 unpack f f;
#X obj 49 117 r D_tab;
#X obj 47 92 tabwrite \$0-K-mass;
#X obj 49 186 tabwrite \$0-D-mass;
#N canvas 0 50 450 300 remove_denormal 0;
#X obj 21 22 inlet;
#X obj 21 45 moses -1e-35;
#X obj 102 67 moses 1e-35;
#X msg 102 91 0;
#X obj 102 127 outlet;
#X connect 0 0 1 0;
#X connect 1 0 4 0;
#X connect 1 1 2 0;
#X connect 2 0 3 0;
#X connect 2 1 4 0;
#X connect 3 0 4 0;
#X restore 47 69 pd remove_denormal;
#N canvas 0 50 450 300 remove_denormal 0;
#X obj 21 22 inlet;
#X obj 21 45 moses -1e-35;
#X obj 102 67 moses 1e-35;
#X msg 102 91 0;
#X obj 102 127 outlet;
#X connect 0 0 1 0;
#X connect 1 0 4 0;
#X connect 1 1 2 0;
#X connect 2 0 3 0;
#X connect 2 1 4 0;
#X connect 3 0 4 0;
#X restore 49 163 pd remove_denormal;
#X connect 2 0 3 0;
#X connect 3 0 8 0;
#X connect 3 1 6 1;
#X connect 4 0 9 0;
#X connect 4 1 7 1;
#X connect 5 0 4 0;
#X connect 8 0 6 0;
#X connect 9 0 7 0;
#X restore 24 213 pd K_D_non_linear_table ________;
#N canvas 616 174 1377 776 sound_particules 0;
#X obj 0 0 sound_part2 \$0 \$2 0;
#X obj 400 400 sound_part2 \$0 \$2 20;
#X obj 560 560 sound_part2 \$0 \$2 28;
#X obj 100 100 sound_part2 \$0 \$2 5;
#X obj 20 20 sound_part2 \$0 \$2 1;
#X obj 40 40 sound_part2 \$0 \$2 2;
#X obj 60 60 sound_part2 \$0 \$2 3;
#X obj 80 80 sound_part2 \$0 \$2 4;
#X obj 121 120 sound_part2 \$0 \$2 6;
#X obj 140 140 sound_part2 \$0 \$2 7;
#X obj 160 160 sound_part2 \$0 \$2 8;
#X obj 180 180 sound_part2 \$0 \$2 9;
#X obj 201 200 sound_part2 \$0 \$2 10;
#X obj 220 220 sound_part2 \$0 \$2 11;
#X obj 240 240 sound_part2 \$0 \$2 12;
#X obj 260 260 sound_part2 \$0 \$2 13;
#X obj 280 280 sound_part2 \$0 \$2 14;
#X obj 300 300 sound_part2 \$0 \$2 15;
#X obj 320 320 sound_part2 \$0 \$2 16;
#X obj 340 340 sound_part2 \$0 \$2 17;
#X obj 360 360 sound_part2 \$0 \$2 18;
#X obj 380 380 sound_part2 \$0 \$2 19;
#X obj 421 420 sound_part2 \$0 \$2 21;
#X obj 440 440 sound_part2 \$0 \$2 22;
#X obj 460 460 sound_part2 \$0 \$2 23;
#X obj 480 480 sound_part2 \$0 \$2 24;
#X obj 500 500 sound_part2 \$0 \$2 25;
#X obj 520 520 sound_part2 \$0 \$2 26;
#X obj 540 540 sound_part2 \$0 \$2 27;
#X obj 580 580 sound_part2 \$0 \$2 29;
#X obj 600 600 sound_part2 \$0 \$2 30;
#X obj 620 620 sound_part2 \$0 \$2 31;
#X obj 640 640 sound_part2 \$0 \$2 32;
#X obj 660 660 sound_part2 \$0 \$2 33;
#X obj 680 680 sound_part2 \$0 \$2 34;
#X obj 700 700 sound_part2 \$0 \$2 35;
#X obj 720 720 sound_part2 \$0 \$2 36;
#X obj 740 740 sound_part2 \$0 \$2 37;
#X obj 760 760 sound_part2 \$0 \$2 38;
#X obj 780 780 sound_part2 \$0 \$2 39;
#X obj 800 800 sound_part2 \$0 \$2 40;
#X obj 820 820 sound_part2 \$0 \$2 41;
#X obj 840 840 sound_part2 \$0 \$2 42;
#X obj 860 860 sound_part2 \$0 \$2 43;
#X obj 880 880 sound_part2 \$0 \$2 44;
#X obj 900 900 sound_part2 \$0 \$2 45;
#X obj 921 920 sound_part2 \$0 \$2 46;
#X obj 561 216 switch~;
#X obj 561 195 change -1;
#X obj 599 144 delay 100;
#X msg 599 168 0;
#X msg 561 171 1;
#X obj 561 112 r syncro;
#X connect 48 0 47 0;
#X connect 49 0 50 0;
#X connect 50 0 48 0;
#X connect 51 0 48 0;
#X connect 52 0 51 0;
#X connect 52 0 49 0;
#X restore 24 233 pd sound_particules ____________;
#N canvas 213 561 385 281 sound 0;
#X obj 36 27 catch~ \$0-catch-1;
#X obj 182 25 catch~ \$0-catch-0;
#X obj 255 89 hip~ 8000;
#X obj 109 84 hip~ 8000;
#X obj 37 85 lop~ 1000;
#X obj 183 89 lop~ 1000;
#X obj 38 151 lop~ 5000;
#X obj 181 154 lop~ 5000;
#N canvas 439 121 554 478 compress_limit 0;
#X obj 23 14 inlet~;
#X obj 24 373 /~;
#X obj 24 402 outlet~;
#X obj 234 151 dbtorms;
#X obj 234 130 + 3;
#X obj 234 175 + 0.1;
#X obj 234 222 moses 1;
#X obj 234 292 f;
#X obj 234 268 + 0.5;
#X obj 234 245 * 0.5;
#X obj 234 58 env~ 128 64;
#X obj 234 197 env+ 11;
#X obj 234 339 line~;
#X obj 335 59 env~ 1024 128;
#X obj 234 102 max;
#X msg 234 316 \$1 4;
#X obj 24 284 / 44100;
#X msg 24 262 128;
#X obj 24 242 loadbang;
#X obj 23 79 delwrite~ \$0-delay 3;
#X obj 24 307 delread~ \$0-delay 0.0029024;
#X connect 0 0 10 0;
#X connect 0 0 13 0;
#X connect 0 0 19 0;
#X connect 1 0 2 0;
#X connect 3 0 5 0;
#X connect 4 0 3 0;
#X connect 5 0 11 0;
#X connect 6 0 9 0;
#X connect 6 1 7 0;
#X connect 7 0 15 0;
#X connect 8 0 7 0;
#X connect 9 0 8 0;
#X connect 10 0 14 0;
#X connect 11 0 6 0;
#X connect 12 0 1 1;
#X connect 13 0 14 1;
#X connect 14 0 4 0;
#X connect 15 0 12 0;
#X connect 16 0 20 0;
#X connect 17 0 16 0;
#X connect 18 0 17 0;
#X connect 20 0 1 0;
#X restore 38 176 pd compress_limit;
#N canvas 441 114 554 478 compress_limit 0;
#X obj 23 14 inlet~;
#X obj 24 373 /~;
#X obj 24 402 outlet~;
#X obj 234 151 dbtorms;
#X obj 234 130 + 3;
#X obj 234 175 + 0.1;
#X obj 234 222 moses 1;
#X obj 234 292 f;
#X obj 234 268 + 0.5;
#X obj 234 245 * 0.5;
#X obj 234 58 env~ 128 64;
#X obj 234 197 env+ 11;
#X obj 234 339 line~;
#X obj 335 59 env~ 1024 128;
#X obj 234 102 max;
#X msg 234 316 \$1 4;
#X obj 24 284 / 44100;
#X msg 24 262 128;
#X obj 24 242 loadbang;
#X obj 23 79 delwrite~ \$0-delay2 3;
#X obj 24 307 delread~ \$0-delay2 0.0029024;
#X connect 0 0 10 0;
#X connect 0 0 13 0;
#X connect 0 0 19 0;
#X connect 1 0 2 0;
#X connect 3 0 5 0;
#X connect 4 0 3 0;
#X connect 5 0 11 0;
#X connect 6 0 9 0;
#X connect 6 1 7 0;
#X connect 7 0 15 0;
#X connect 8 0 7 0;
#X connect 9 0 8 0;
#X connect 10 0 14 0;
#X connect 11 0 6 0;
#X connect 12 0 1 1;
#X connect 13 0 14 1;
#X connect 14 0 4 0;
#X connect 15 0 12 0;
#X connect 16 0 20 0;
#X connect 17 0 16 0;
#X connect 18 0 17 0;
#X connect 20 0 1 0;
#X restore 182 176 pd compress_limit;
#X obj 182 126 *~ 55;
#X obj 37 125 *~ 55;
#X obj 39 202 outlet~;
#X obj 183 202 outlet~;
#X connect 0 0 3 0;
#X connect 0 0 4 0;
#X connect 1 0 2 0;
#X connect 1 0 5 0;
#X connect 2 0 10 0;
#X connect 3 0 11 0;
#X connect 4 0 11 0;
#X connect 5 0 10 0;
#X connect 6 0 8 0;
#X connect 7 0 9 0;
#X connect 8 0 12 0;
#X connect 9 0 13 0;
#X connect 10 0 7 0;
#X connect 11 0 6 0;
#X restore 24 254 pd sound _______________________;
#X obj 23 18 inlet;
#X obj 249 15 inlet;
#X obj 300 72 s \$0-pmpd;
#X obj 23 290 outlet~;
#X obj 213 294 outlet~;
#X obj 244 70 s K_tab;
#X obj 364 74 s resonnance;
#X obj 403 103 s sound_1;
#X obj 450 138 s sound_2;
#X obj 478 186 s sound_3;
#X obj 616 96 print erreur;
#X obj 251 42 route K_tab pmpd resonnance sound_1 sound_2 sound_3 D_tab;
#X obj 532 67 s D_tab;
#X connect 6 0 10 0;
#X connect 6 1 11 0;
#X connect 7 0 1 0;
#X connect 8 0 18 0;
#X connect 18 0 12 0;
#X connect 18 1 9 0;
#X connect 18 2 13 0;
#X connect 18 3 14 0;
#X connect 18 4 15 0;
#X connect 18 5 16 0;
#X connect 18 6 19 0;
#X connect 18 7 17 0;
